# xmcd CD database file
#
# Track frame offsets:
#	150
#	9068
#	29067
#	48176
#	73755
#	96894
#	117692
#	140943
#	165466
#	189773
#	215297
#	235186
#
# Disc length: 3377 seconds
#
# Revision: 0
# Processed by: cddbd v1.5PL3 Copyright (c) Steve Scherf et al.
# Submitted via: CDex 1.50beta10
#
DISCID=a30d2f0c
DTITLE=丹下桜 - Neo-Generation
DYEAR=1900
DGENRE=J ポップ
TTITLE0=天星小輪
TTITLE1=Neo-Generation
TTITLE2=tick away the landscape...
TTITLE3=Bright Shine on Time
TTITLE4=inner space trip
TTITLE5=private link
TTITLE6=falling 〜my love is falling into your heart〜
TTITLE7=TO LOVE
TTITLE8=love stream
TTITLE9=Dancin' in moonlight
TTITLE10=メトロポリス
TTITLE11=Trinity
EXTD=
EXTT0=
EXTT1=
EXTT2=
EXTT3=
EXTT4=
EXTT5=
EXTT6=
EXTT7=
EXTT8=
EXTT9=
EXTT10=
EXTT11=
PLAYORDER=
